<?xml version="1.0" encoding="UTF-8"?> <!-- Generator: Adobe Illustrator 19.0.0, SVG Export Plug-In . SVG Version: 6.00 Build 0) --> <svg xmlns="http://www.w3.org/2000/svg" xmlns:xlink="http://www.w3.org/1999/xlink" version="1.1" id="Laag_1" x="0px" y="0px" viewBox="0 0 190.6 208.9" style="enable-background:new 0 0 190.6 208.9;" xml:space="preserve"> <style type="text/css"> .st0{fill:#FFFFFF;} </style> <g> <path class="st0" d="M0.6,208.2c-0.4-0.4-0.6-0.9-0.6-1.5V188c0-0.6,0.2-1.1,0.6-1.5c0.4-0.4,0.9-0.6,1.5-0.6 c0.6,0,1.1,0.2,1.5,0.6c0.4,0.4,0.6,0.9,0.6,1.5v18.8c0,0.6-0.2,1.1-0.6,1.5c-0.4,0.4-0.9,0.6-1.5,0.6 C1.4,208.8,0.9,208.6,0.6,208.2z"></path> <path class="st0" d="M27.7,186.5c0.4,0.4,0.5,0.9,0.5,1.5v18.8c0,0.6-0.2,1.1-0.5,1.5c-0.4,0.4-0.8,0.6-1.4,0.6 c-0.7,0-1.2-0.2-1.6-0.7L13,192.9v13.9c0,0.6-0.2,1.1-0.5,1.5c-0.3,0.4-0.8,0.6-1.4,0.6c-0.6,0-1.1-0.2-1.4-0.6 c-0.3-0.4-0.5-0.9-0.5-1.5V188c0-0.6,0.2-1.1,0.5-1.5c0.4-0.4,0.8-0.6,1.4-0.6c0.7,0,1.2,0.2,1.5,0.7l11.6,15.1V188 c0-0.6,0.2-1.1,0.5-1.5c0.4-0.4,0.8-0.6,1.4-0.6C26.8,185.9,27.3,186.1,27.7,186.5z"></path> <path class="st0" d="M51.7,186.5c0.4,0.4,0.5,0.9,0.5,1.5v18.8c0,0.6-0.2,1.1-0.5,1.5c-0.4,0.4-0.8,0.6-1.4,0.6 c-0.7,0-1.2-0.2-1.6-0.7l-11.7-15.2v13.9c0,0.6-0.2,1.1-0.5,1.5c-0.3,0.4-0.8,0.6-1.4,0.6c-0.6,0-1.1-0.2-1.4-0.6 c-0.3-0.4-0.5-0.9-0.5-1.5V188c0-0.6,0.2-1.1,0.5-1.5c0.4-0.4,0.8-0.6,1.4-0.6c0.7,0,1.2,0.2,1.5,0.7l11.6,15.1V188 c0-0.6,0.2-1.1,0.5-1.5c0.4-0.4,0.8-0.6,1.4-0.6C50.9,185.9,51.4,186.1,51.7,186.5z"></path> <path class="st0" d="M61.4,207.5c-1.6-0.9-2.9-2.3-3.7-4c-0.9-1.7-1.3-3.8-1.3-6.1c0-2.3,0.4-4.4,1.3-6.1c0.9-1.7,2.1-3.1,3.7-4 c1.6-0.9,3.5-1.4,5.7-1.4c2.2,0,4.1,0.5,5.7,1.4c1.6,0.9,2.8,2.3,3.7,4c0.9,1.7,1.3,3.8,1.3,6.1c0,2.3-0.4,4.4-1.3,6.1 c-0.9,1.8-2.1,3.1-3.7,4c-1.6,0.9-3.5,1.4-5.7,1.4C64.9,208.9,63,208.4,61.4,207.5z M71.9,203.5c1.2-1.4,1.7-3.5,1.7-6.1 c0-2.7-0.6-4.7-1.7-6.1c-1.2-1.4-2.8-2.1-4.8-2.1c-2.1,0-3.7,0.7-4.9,2.1c-1.2,1.4-1.7,3.5-1.7,6.1c0,2.7,0.6,4.7,1.7,6.1 c1.2,1.4,2.8,2.1,4.9,2.1C69.2,205.6,70.8,204.9,71.9,203.5z"></path> <path class="st0" d="M99.4,185.9c0.5,0,1,0.2,1.4,0.5c0.4,0.3,0.6,0.8,0.6,1.3c0,0.2-0.1,0.5-0.2,0.8l-8.9,19.1 c-0.2,0.4-0.5,0.7-0.9,0.9c-0.4,0.2-0.8,0.3-1.3,0.3c-0.4,0-0.9-0.1-1.3-0.3c-0.4-0.2-0.7-0.5-0.9-0.9l-8.8-19.1 c-0.1-0.3-0.2-0.6-0.2-0.8c0-0.5,0.2-1,0.7-1.3c0.4-0.3,0.9-0.5,1.5-0.5c0.4,0,0.7,0.1,1,0.3c0.3,0.2,0.5,0.5,0.7,0.8l7.4,16.4 l7.4-16.4C98,186.2,98.6,185.9,99.4,185.9z"></path> <path class="st0" d="M122.6,207c0,0.5-0.2,0.9-0.6,1.2c-0.4,0.3-0.8,0.5-1.4,0.5c-0.3,0-0.7-0.1-1-0.3c-0.3-0.2-0.5-0.5-0.7-0.8 l-1.9-4.3h-11.3l-1.9,4.3c-0.2,0.4-0.4,0.7-0.7,0.8c-0.3,0.2-0.6,0.3-1,0.3c-0.5,0-0.9-0.2-1.3-0.5c-0.4-0.3-0.6-0.8-0.6-1.2 c0-0.3,0.1-0.6,0.2-0.8l8.8-19c0.2-0.4,0.5-0.8,0.9-1c0.4-0.2,0.8-0.3,1.3-0.3c0.4,0,0.9,0.1,1.3,0.3c0.4,0.2,0.7,0.5,0.9,1l8.9,19 C122.6,206.4,122.6,206.7,122.6,207z M107.2,200.1h8.4l-4.2-9.5L107.2,200.1z"></path> <path class="st0" d="M128.8,208.2c-0.4-0.4-0.6-0.9-0.6-1.5v-17.3h-5.8c-1.3,0-1.9-0.6-1.9-1.7c0-1.1,0.6-1.7,1.9-1.7h15.8 c1.3,0,1.9,0.6,1.9,1.7c0,1.1-0.6,1.7-1.9,1.7h-5.8v17.3c0,0.6-0.2,1.1-0.6,1.5c-0.4,0.4-0.9,0.6-1.5,0.6 C129.7,208.8,129.2,208.6,128.8,208.2z"></path> <path class="st0" d="M143.4,208.2c-0.4-0.4-0.6-0.9-0.6-1.5V188c0-0.6,0.2-1.1,0.6-1.5c0.4-0.4,0.9-0.6,1.5-0.6 c0.6,0,1.1,0.2,1.5,0.6c0.4,0.4,0.6,0.9,0.6,1.5v18.8c0,0.6-0.2,1.1-0.6,1.5c-0.4,0.4-0.9,0.6-1.5,0.6 C144.3,208.8,143.8,208.6,143.4,208.2z"></path> <path class="st0" d="M170.2,185.9c0.5,0,1,0.2,1.4,0.5c0.4,0.3,0.6,0.8,0.6,1.3c0,0.2-0.1,0.5-0.2,0.8l-8.9,19.1 c-0.2,0.4-0.5,0.7-0.9,0.9c-0.4,0.2-0.8,0.3-1.3,0.3c-0.4,0-0.9-0.1-1.3-0.3c-0.4-0.2-0.7-0.5-0.9-0.9l-8.8-19.1 c-0.1-0.3-0.2-0.6-0.2-0.8c0-0.5,0.2-1,0.7-1.3c0.4-0.3,0.9-0.5,1.5-0.5c0.4,0,0.7,0.1,1,0.3c0.3,0.2,0.5,0.5,0.7,0.8l7.4,16.4 l7.4-16.4C168.8,186.2,169.4,185.9,170.2,185.9z"></path> <path class="st0" d="M175.6,208.1c-0.4-0.3-0.5-0.8-0.5-1.4V188c0-0.6,0.2-1.1,0.5-1.4c0.4-0.3,0.8-0.5,1.5-0.5h11.6 c0.6,0,1.1,0.1,1.4,0.4c0.3,0.3,0.5,0.7,0.5,1.2c0,0.5-0.2,0.9-0.5,1.2c-0.3,0.3-0.8,0.4-1.4,0.4h-9.5v6.2h8.9 c0.6,0,1.1,0.1,1.4,0.4c0.3,0.3,0.5,0.7,0.5,1.2c0,0.5-0.2,0.9-0.5,1.2c-0.3,0.3-0.8,0.4-1.4,0.4h-8.9v6.6h9.5 c0.6,0,1.1,0.1,1.4,0.4c0.3,0.3,0.5,0.7,0.5,1.2c0,0.5-0.2,0.9-0.5,1.2c-0.3,0.3-0.8,0.4-1.4,0.4h-11.6 C176.4,208.6,176,208.5,175.6,208.1z"></path> </g> <g> <g> <g> <g> <g> <path class="st0" d="M93.8,38.8c-19,0.8-34.8,16.9-35.1,36.1c-0.2,9.8,3.5,19.2,10.3,26.3c6.2,6.4,9.6,14.4,9.6,22.5v2.7 c0,1.3,1.1,2.4,2.4,2.4h28.8c1.3,0,2.4-1.1,2.4-2.4v-3.8c0-7.6,3.2-15,9.1-20.9c6.9-6.9,10.8-16.2,10.8-26 c0-20.3-16.4-36.8-36.6-36.8h0v-0.4c0,0,0,0,0,0h0l0,0.4C94.8,38.8,94.3,38.8,93.8,38.8z M117.8,53c6,6,9.3,14.1,9.3,22.6 c0,8.5-3.3,16.6-9.4,22.6c-6.8,6.8-10.5,15.4-10.5,24.3v0.5v0.9h-0.9H84.2h-0.8l0-0.8c-0.2-9.1-4-18.1-10.9-25.3 c-5.9-6.1-9.1-14.2-8.9-22.8c0.3-16.6,14-30.6,30.5-31.3c0.4,0,0.9,0,1.3,0C103.8,43.6,111.8,46.9,117.8,53z"></path> </g> </g> <g> <g> <path class="st0" d="M109.7,134.9H80.9c-1.3,0-2.4,1.1-2.4,2.4c0,1.3,1.1,2.4,2.4,2.4h28.8c1.3,0,2.4-1.1,2.4-2.4 C112.1,135.9,111,134.9,109.7,134.9z"></path> </g> </g> <g> <g> <path class="st0" d="M104.2,145.9H86.4c-1.3,0-2.4,1.1-2.4,2.4c0,1.3,1.1,2.4,2.4,2.4h17.8c1.3,0,2.4-1.1,2.4-2.4 C106.6,146.9,105.5,145.9,104.2,145.9z"></path> </g> </g> <g> <g> <path class="st0" d="M98.7,156.9h-6.9c-1.3,0-2.4,1.1-2.4,2.4c0,1.3,1.1,2.4,2.4,2.4h6.9c1.3,0,2.4-1.1,2.4-2.4 C101.1,157.9,100,156.9,98.7,156.9z"></path> </g> </g> </g> </g> <g> <g> <g> <path class="st0" d="M97.7,2.4c0-1.3-1.1-2.4-2.4-2.4c-1.3,0-2.4,1.1-2.4,2.4v15.9c0,1.3,1.1,2.4,2.4,2.4c1.3,0,2.4-1.1,2.4-2.4 V2.4z"></path> </g> </g> <g> <g> <g> <path class="st0" d="M145.2,72.1H161c1.3,0,2.4-1.1,2.4-2.4c0-1.3-1.1-2.4-2.4-2.4h-15.9c-1.3,0-2.4,1.1-2.4,2.4 C142.7,71,143.8,72.1,145.2,72.1z"></path> </g> </g> <g> <g> <path class="st0" d="M131.3,30.8c-0.5,0.5-0.7,1.1-0.7,1.7c0,0.6,0.3,1.3,0.7,1.7c0.5,0.5,1.1,0.7,1.7,0.7 c0.6,0,1.3-0.3,1.7-0.7L145.9,23c0.5-0.5,0.7-1.1,0.7-1.7c0-0.6-0.3-1.3-0.7-1.7c-0.5-0.5-1.1-0.7-1.7-0.7 c-0.6,0-1.3,0.3-1.7,0.7L131.3,30.8z"></path> </g> </g> <g> <g> <path class="st0" d="M45.4,67.3H29.5c-1.3,0-2.4,1.1-2.4,2.4c0,1.3,1.1,2.4,2.4,2.4h15.9c1.3,0,2.4-1.1,2.4-2.4 C47.8,68.4,46.7,67.3,45.4,67.3z"></path> </g> </g> <g> <g> <path class="st0" d="M49,19.6c-0.5-0.5-1.1-0.7-1.7-0.7c-0.6,0-1.2,0.3-1.7,0.7c-0.5,0.5-0.7,1.1-0.7,1.7 c0,0.6,0.2,1.3,0.7,1.7l11.2,11.3c0.5,0.5,1.1,0.7,1.7,0.7c0.6,0,1.2-0.3,1.7-0.7c0.5-0.5,0.7-1.1,0.7-1.7 c0-0.6-0.2-1.3-0.7-1.7L49,19.6z"></path> </g> </g> </g> </g> </g> </svg> 