<?xml version="1.0" encoding="UTF-8"?> <!-- Generator: Adobe Illustrator 19.0.0, SVG Export Plug-In . SVG Version: 6.00 Build 0) --> <svg xmlns="http://www.w3.org/2000/svg" xmlns:xlink="http://www.w3.org/1999/xlink" version="1.1" id="Laag_1" x="0px" y="0px" viewBox="0 0 289.9 193.6" style="enable-background:new 0 0 289.9 193.6;" xml:space="preserve"> <style type="text/css"> .st0{fill:#FFFFFF;} </style> <g> <path class="st0" d="M4.3,192.9c-1.5-0.4-2.7-1-3.6-1.8c-0.5-0.4-0.7-0.9-0.7-1.5c0-0.4,0.1-0.8,0.4-1.2c0.3-0.3,0.6-0.5,0.9-0.5 c0.4,0,0.8,0.1,1.3,0.4c0.9,0.7,1.9,1.1,2.9,1.4c1,0.3,2.1,0.4,3.3,0.4c1.6,0,2.8-0.3,3.6-0.8c0.8-0.5,1.2-1.3,1.2-2.4 c0-0.8-0.4-1.4-1.2-1.9c-0.8-0.4-2.1-0.9-3.9-1.3c-1.9-0.4-3.4-0.9-4.6-1.4c-1.2-0.5-2.1-1.2-2.7-2c-0.6-0.8-0.9-1.9-0.9-3.2 c0-1.3,0.4-2.5,1.1-3.6c0.7-1,1.8-1.9,3.1-2.4c1.3-0.6,2.8-0.9,4.5-0.9c3.1,0,5.5,0.8,7.5,2.4c0.3,0.2,0.5,0.5,0.6,0.7 c0.1,0.2,0.2,0.5,0.2,0.8c0,0.4-0.1,0.8-0.4,1.2c-0.3,0.3-0.6,0.5-0.9,0.5c-0.2,0-0.4,0-0.6-0.1c-0.2-0.1-0.4-0.2-0.7-0.4 c-0.9-0.6-1.7-1.1-2.5-1.4c-0.8-0.3-1.8-0.5-3-0.5c-1.5,0-2.6,0.3-3.4,0.9C5,175.2,4.5,176,4.5,177c0,0.9,0.4,1.5,1.1,2 c0.7,0.5,2,0.9,3.8,1.3c1.9,0.4,3.4,0.9,4.6,1.4c1.2,0.5,2.1,1.2,2.7,2c0.6,0.8,0.9,1.8,0.9,3c0,1.3-0.4,2.5-1.1,3.5 c-0.7,1-1.8,1.8-3.1,2.4c-1.3,0.6-2.9,0.8-4.6,0.8C7.3,193.6,5.8,193.3,4.3,192.9z"></path> <path class="st0" d="M25.7,192.2c-1.6-0.9-2.9-2.3-3.7-4c-0.9-1.7-1.3-3.8-1.3-6.1c0-2.3,0.4-4.4,1.3-6.1c0.9-1.7,2.1-3.1,3.7-4 c1.6-0.9,3.5-1.4,5.7-1.4c2.2,0,4.1,0.5,5.7,1.4c1.6,0.9,2.8,2.3,3.7,4c0.9,1.7,1.3,3.8,1.3,6.1c0,2.3-0.4,4.4-1.3,6.1 c-0.9,1.8-2.1,3.1-3.7,4c-1.6,0.9-3.5,1.4-5.7,1.4C29.2,193.6,27.3,193.1,25.7,192.2z M36.2,188.1c1.2-1.4,1.7-3.5,1.7-6.1 c0-2.7-0.6-4.7-1.7-6.1c-1.2-1.4-2.8-2.1-4.8-2.1c-2.1,0-3.7,0.7-4.9,2.1c-1.2,1.4-1.7,3.5-1.7,6.1c0,2.7,0.6,4.7,1.7,6.1 c1.2,1.4,2.8,2.1,4.9,2.1C33.5,190.3,35.1,189.5,36.2,188.1z"></path> <path class="st0" d="M46.7,192.8c-0.3-0.3-0.5-0.8-0.5-1.4v-18.8c0-0.6,0.2-1.1,0.6-1.5c0.4-0.4,0.9-0.6,1.5-0.6 c0.6,0,1.1,0.2,1.5,0.6c0.4,0.4,0.6,0.9,0.6,1.5v17.3h9c1.3,0,1.9,0.6,1.9,1.7c0,1.1-0.6,1.7-1.9,1.7H48.1 C47.5,193.3,47,193.1,46.7,192.8z"></path> <path class="st0" d="M65.6,191.2c-1.6-1.6-2.4-3.9-2.4-7v-11.6c0-0.6,0.2-1.1,0.5-1.5c0.4-0.4,0.9-0.6,1.5-0.6 c0.6,0,1.1,0.2,1.5,0.6c0.4,0.4,0.5,0.9,0.5,1.5v11.8c0,1.9,0.5,3.4,1.4,4.4c0.9,1,2.3,1.5,4,1.5c1.7,0,3.1-0.5,4-1.5 c0.9-1,1.4-2.5,1.4-4.4v-11.8c0-0.6,0.2-1.1,0.5-1.5c0.4-0.4,0.9-0.6,1.5-0.6c0.6,0,1.1,0.2,1.5,0.6c0.4,0.4,0.5,0.9,0.5,1.5v11.6 c0,3.1-0.8,5.4-2.4,7c-1.6,1.6-3.9,2.4-7,2.4C69.5,193.6,67.2,192.8,65.6,191.2z"></path> <path class="st0" d="M93,192.9c-0.4-0.4-0.6-0.9-0.6-1.5v-17.3h-5.8c-1.3,0-1.9-0.6-1.9-1.7c0-1.1,0.6-1.7,1.9-1.7h15.8 c1.3,0,1.9,0.6,1.9,1.7c0,1.1-0.6,1.7-1.9,1.7h-5.8v17.3c0,0.6-0.2,1.1-0.6,1.5c-0.4,0.4-0.9,0.6-1.5,0.6 C93.9,193.4,93.4,193.2,93,192.9z"></path> <path class="st0" d="M107.6,192.9c-0.4-0.4-0.6-0.9-0.6-1.5v-18.8c0-0.6,0.2-1.1,0.6-1.5c0.4-0.4,0.9-0.6,1.5-0.6 c0.6,0,1.1,0.2,1.5,0.6c0.4,0.4,0.6,0.9,0.6,1.5v18.8c0,0.6-0.2,1.1-0.6,1.5c-0.4,0.4-0.9,0.6-1.5,0.6 C108.5,193.5,108,193.3,107.6,192.9z"></path> <path class="st0" d="M120.3,192.2c-1.6-0.9-2.9-2.3-3.7-4c-0.9-1.7-1.3-3.8-1.3-6.1c0-2.3,0.4-4.4,1.3-6.1c0.9-1.7,2.1-3.1,3.7-4 c1.6-0.9,3.5-1.4,5.7-1.4c2.2,0,4.1,0.5,5.7,1.4c1.6,0.9,2.8,2.3,3.7,4c0.9,1.7,1.3,3.8,1.3,6.1c0,2.3-0.4,4.4-1.3,6.1 c-0.9,1.8-2.1,3.1-3.7,4c-1.6,0.9-3.5,1.4-5.7,1.4C123.8,193.6,121.9,193.1,120.3,192.2z M130.9,188.1c1.2-1.4,1.7-3.5,1.7-6.1 c0-2.7-0.6-4.7-1.7-6.1c-1.2-1.4-2.8-2.1-4.8-2.1c-2.1,0-3.7,0.7-4.9,2.1c-1.2,1.4-1.7,3.5-1.7,6.1c0,2.7,0.6,4.7,1.7,6.1 c1.2,1.4,2.8,2.1,4.9,2.1C128.1,190.3,129.7,189.5,130.9,188.1z"></path> <path class="st0" d="M159.4,171.1c0.4,0.4,0.5,0.9,0.5,1.5v18.8c0,0.6-0.2,1.1-0.5,1.5c-0.4,0.4-0.8,0.6-1.4,0.6 c-0.7,0-1.2-0.2-1.6-0.7l-11.7-15.2v13.9c0,0.6-0.2,1.1-0.5,1.5c-0.3,0.4-0.8,0.6-1.4,0.6c-0.6,0-1.1-0.2-1.4-0.6 c-0.3-0.4-0.5-0.9-0.5-1.5v-18.8c0-0.6,0.2-1.1,0.5-1.5c0.4-0.4,0.8-0.6,1.4-0.6c0.7,0,1.2,0.2,1.5,0.7l11.6,15.1v-13.8 c0-0.6,0.2-1.1,0.5-1.5c0.4-0.4,0.8-0.6,1.4-0.6C158.5,170.6,159,170.7,159.4,171.1z"></path> <path class="st0" d="M173.9,192.8c-0.4-0.3-0.5-0.8-0.5-1.4v-18.7c0-0.6,0.2-1.1,0.5-1.4c0.4-0.3,0.8-0.5,1.5-0.5h6.3 c3.7,0,6.6,1,8.6,3c2,2,3.1,4.7,3.1,8.3c0,3.6-1,6.4-3.1,8.3c-2,2-4.9,3-8.6,3h-6.3C174.8,193.3,174.3,193.1,173.9,192.8z M181.5,189.9c5.2,0,7.8-2.6,7.8-7.9c0-5.3-2.6-7.9-7.8-7.9h-3.9v15.8H181.5z"></path> <path class="st0" d="M215.9,191.8c0,0.5-0.2,0.9-0.6,1.2c-0.4,0.3-0.9,0.5-1.4,0.5c-0.3,0-0.7-0.1-1-0.2c-0.3-0.2-0.6-0.4-0.8-0.7 l-4.3-6.5c-0.4-0.7-0.9-1.2-1.4-1.4c-0.5-0.3-1.1-0.4-1.9-0.4h-3.1v7.2c0,0.6-0.2,1.1-0.5,1.5c-0.4,0.4-0.9,0.6-1.5,0.6 c-0.6,0-1.1-0.2-1.5-0.6c-0.4-0.4-0.6-0.9-0.6-1.5v-18.7c0-0.6,0.2-1.1,0.5-1.4c0.4-0.3,0.8-0.5,1.5-0.5h8c2.6,0,4.5,0.6,5.8,1.7 c1.3,1.1,2,2.8,2,4.9c0,1.8-0.5,3.2-1.5,4.3c-1,1.1-2.4,1.8-4.2,2.2c0.6,0.2,1.2,0.4,1.6,0.8c0.5,0.4,0.9,0.9,1.4,1.6l2.9,4.4 C215.7,191.1,215.9,191.4,215.9,191.8z M210.3,180.2c0.7-0.6,1.1-1.5,1.1-2.7c0-1.2-0.4-2.1-1.1-2.7c-0.7-0.6-1.9-0.8-3.4-0.8h-5.4 v7.1h5.4C208.4,181,209.5,180.8,210.3,180.2z"></path> <path class="st0" d="M220.2,192.9c-0.4-0.4-0.6-0.9-0.6-1.5v-18.8c0-0.6,0.2-1.1,0.6-1.5c0.4-0.4,0.9-0.6,1.5-0.6 c0.6,0,1.1,0.2,1.5,0.6c0.4,0.4,0.6,0.9,0.6,1.5v18.8c0,0.6-0.2,1.1-0.6,1.5c-0.4,0.4-0.9,0.6-1.5,0.6 C221.1,193.5,220.6,193.3,220.2,192.9z"></path> <path class="st0" d="M246.9,170.5c0.5,0,1,0.2,1.4,0.5c0.4,0.3,0.6,0.8,0.6,1.3c0,0.2-0.1,0.5-0.2,0.8l-8.9,19.1 c-0.2,0.4-0.5,0.7-0.9,0.9c-0.4,0.2-0.8,0.3-1.3,0.3c-0.4,0-0.9-0.1-1.3-0.3c-0.4-0.2-0.7-0.5-0.9-0.9l-8.8-19.1 c-0.1-0.3-0.2-0.6-0.2-0.8c0-0.5,0.2-1,0.7-1.3c0.4-0.3,0.9-0.5,1.5-0.5c0.4,0,0.7,0.1,1,0.3c0.3,0.2,0.5,0.5,0.7,0.8l7.4,16.4 l7.4-16.4C245.6,170.9,246.1,170.5,246.9,170.5z"></path> <path class="st0" d="M252.4,192.8c-0.4-0.3-0.5-0.8-0.5-1.4v-18.7c0-0.6,0.2-1.1,0.5-1.4c0.4-0.3,0.8-0.5,1.5-0.5h11.6 c0.6,0,1.1,0.1,1.4,0.4c0.3,0.3,0.5,0.7,0.5,1.2c0,0.5-0.2,0.9-0.5,1.2c-0.3,0.3-0.8,0.4-1.4,0.4h-9.5v6.2h8.9 c0.6,0,1.1,0.1,1.4,0.4c0.3,0.3,0.5,0.7,0.5,1.2c0,0.5-0.2,0.9-0.5,1.2c-0.3,0.3-0.8,0.4-1.4,0.4h-8.9v6.6h9.5 c0.6,0,1.1,0.1,1.4,0.4c0.3,0.3,0.5,0.7,0.5,1.2c0,0.5-0.2,0.9-0.5,1.2c-0.3,0.3-0.8,0.4-1.4,0.4h-11.6 C253.2,193.3,252.7,193.1,252.4,192.8z"></path> <path class="st0" d="M289.3,171.1c0.4,0.4,0.5,0.9,0.5,1.5v18.8c0,0.6-0.2,1.1-0.5,1.5c-0.4,0.4-0.8,0.6-1.4,0.6 c-0.7,0-1.2-0.2-1.6-0.7l-11.7-15.2v13.9c0,0.6-0.2,1.1-0.5,1.5c-0.3,0.4-0.8,0.6-1.4,0.6c-0.6,0-1.1-0.2-1.4-0.6 c-0.3-0.4-0.5-0.9-0.5-1.5v-18.8c0-0.6,0.2-1.1,0.5-1.5c0.4-0.4,0.8-0.6,1.4-0.6c0.7,0,1.2,0.2,1.5,0.7l11.6,15.1v-13.8 c0-0.6,0.2-1.1,0.5-1.5c0.4-0.4,0.8-0.6,1.4-0.6C288.5,170.6,289,170.7,289.3,171.1z"></path> </g> <g> <g> <path class="st0" d="M132.2,38c-0.3,0-0.6,0-0.8-0.1c-0.6-0.2-1.2-0.7-1.5-1.3c-0.5-1.1-1.1-2.1-1.6-3.1c-1-1.8-2.1-3.5-3.3-5.2 c-0.5,0.4-0.9,0.8-1.3,1.3c-1,1.1-2.2,2.4-4.2,2.8c-2.4,0.5-5.1-0.4-6.7-2.3c-0.2-0.3-0.4-0.6-0.6-1c-0.2-0.4-0.3-0.8-0.4-1.2 c-0.9-2.9-0.5-5.2,1.4-7c0.7-0.6,1.4-1.1,2-1.5c0.6-0.4,1.1-0.7,1.5-1.1c-1.5-1.4-3-2.8-4.6-4.1c-1-0.8-1.9-1.5-2.7-2.1 c-0.6-0.4-1-1-1-1.7c-0.1-0.7,0.1-1.5,0.6-2c0,0,0.1-0.1,0.1-0.1l0.1-0.1c0.9-1.1,2-2,3.2-2.8c2.9-1.8,6.1-3.2,9.5-4.1 c3.3-0.9,6.9-1.4,10.7-1.4c1.1,0,2.2,0,3.3,0.1c9.6,0.5,19.1,4.9,25.4,11.8c0.6,0.6,0.6,1.6,0.1,2.3c-0.4,0.6-0.9,1.2-1.5,1.9 c-1.4,1.6-3,3-4.2,4c-0.2,0.2-0.4,0.3-0.6,0.5c-1,0.9-2.2,2-3.7,2.3c-1.3,0.3-2.6-0.1-3.5-1c-0.7-0.7-1.3-1.5-1.8-2.4 c-0.6-1-1.2-1.9-1.9-2.2c-1.1-0.5-2.5-0.2-3.3,0.5c-0.9,0.8-1.4,2.1-1.1,3.3c0.2,0.8,1,1.5,1.8,2.3c0.7,0.6,1.4,1.3,2,2.2 c0.7,1,0.9,2.4,0.4,3.6c-0.2,0.5-0.6,1-1,1.4c-0.9,0.9-1.7,1.5-2.4,2.2c-2.4,2-4.6,3.6-7,4.7c-0.1,0-0.1,0.1-0.2,0.1 C133,37.9,132.6,38,132.2,38z M125,24.6c0.6,0,1.2,0.2,1.8,0.5c0.5,0.3,0.9,0.6,1.2,1.1c1.3,1.8,2.4,3.6,3.5,5.5 c0.4,0.7,0.8,1.5,1.2,2.3c1.8-1,3.6-2.3,5.5-3.9c0.7-0.6,1.4-1.2,2.2-2c0.1-0.1,0.1-0.1,0.1-0.2l0-0.1c-0.3-0.5-0.9-1-1.5-1.5 c-1.2-1.1-2.5-2.3-2.9-4.1c-0.6-2.5,0.3-5.3,2.3-6.9c2-1.6,4.9-2.1,7.2-1.1c1.8,0.8,2.7,2.3,3.6,3.6c0.4,0.7,0.8,1.3,1.3,1.7 c0.7-0.1,1.5-0.8,2.1-1.4c0.2-0.2,0.4-0.4,0.7-0.6c1.2-1,2.6-2.3,3.8-3.7c0.1-0.2,0.3-0.3,0.4-0.5c-5.6-5.6-13.7-9.1-21.8-9.5 c-1.1-0.1-2.1-0.1-3.1-0.1c-3.5,0-6.8,0.5-9.8,1.3c-3,0.8-5.9,2-8.5,3.6c-0.6,0.4-1.2,0.8-1.7,1.3c0.6,0.5,1.2,1,1.9,1.5 c1.7,1.4,3.3,2.9,4.9,4.4c1,1,1.3,2.4,0.9,3.7c-0.2,0.5-0.5,1.1-1,1.5c-0.6,0.6-1.4,1.1-2.1,1.5c-0.6,0.4-1.1,0.7-1.5,1.1 c-0.4,0.4-1.1,1-0.4,3.2c0.1,0.3,0.2,0.6,0.3,0.9c0.8,0.9,2,1.3,3.1,1.1c0.8-0.2,1.4-0.8,2.3-1.7c0.5-0.6,1.1-1.2,1.9-1.8 c0.3-0.2,0.7-0.4,1-0.5c0.2-0.1,0.4-0.1,0.6-0.1C124.7,24.6,124.8,24.6,125,24.6z M124.9,28.3L124.9,28.3L124.9,28.3z M125,28.2 L125,28.2L125,28.2z"></path> </g> <g> <path class="st0" d="M192.5,146.1c-0.3,0-0.5,0-0.6,0c-4.8-0.5-9.3-0.9-13.4-1.2c-1.1-0.1-2.6-0.4-3.8-1.9 c-0.4-0.5-0.8-0.9-1.2-1.4c-0.3-0.3-0.5-0.7-0.8-1l-37.6-45.4c-4.6,1-9.5,1.1-14.1,0.3c-7.7-1.4-14.6-5.3-19.8-11.2 c-0.2-0.2-0.4-0.5-0.6-0.7c-0.2-0.2-0.4-0.4-0.5-0.6c-5.2-6.6-7.7-15.8-6.7-24.5c1-8.7,4.2-15.8,9.4-21.1c0.6-0.7,1.7-0.7,2.4-0.2 l2.1,1.5c0,0,0.1,0,0.1,0.1c0.5,0.4,0.9,0.7,1.4,1.1c1.7,1.4,3.4,2.9,4.9,4.5c1,1,1.3,2.4,0.9,3.7c-0.2,0.6-0.5,1.1-0.9,1.5 c-0.7,0.6-1.4,1.1-2.1,1.6c-0.6,0.4-1.1,0.7-1.5,1.1c-0.3,0.3-0.5,0.5-0.6,0.8c-0.4,1.1-0.2,2.4,0.5,3.3c0.7,0.9,2,1.3,3.1,1.1 c0.8-0.2,1.4-0.8,2.3-1.7c0.5-0.6,1.1-1.2,1.9-1.8c0.5-0.4,1.1-0.6,1.7-0.7c1.3-0.2,2.7,0.4,3.5,1.5c1.3,1.8,2.5,3.7,3.5,5.5 c0.4,0.7,0.8,1.5,1.2,2.3c2.5-1.4,5-3.3,7.8-5.9c0.1-0.1,0.1-0.2,0.1-0.2c0,0,0-0.1,0-0.1c-0.4-0.5-0.9-1-1.5-1.6 c-1.2-1.1-2.5-2.3-2.9-4.1c-0.6-2.5,0.3-5.3,2.3-6.9c2-1.7,4.9-2.1,7.2-1.1c1.8,0.8,2.7,2.3,3.6,3.6c0.4,0.7,0.8,1.3,1.3,1.7 c0.7-0.1,1.5-0.8,2.2-1.5c0.3-0.2,0.5-0.5,0.7-0.7c1.6-1.3,2.8-2.5,3.8-3.7c0.3-0.4,0.6-0.8,1-1.2c0.1-0.1,0.2-0.2,0.3-0.3 l0.3-0.3c0.4-0.3,0.9-0.5,1.4-0.4c0.5,0.1,1,0.3,1.3,0.8c1.4,1.9,2.5,4,3.5,6.1c1.7,3.8,2.6,7.8,2.9,11.9 c0.4,7.2-1.4,14.5-5.2,20.6l8,9.7c0.6,0.8,1.2,0.9,1.6,0.9c0,0,0.1,0,0.1,0c1.8,0.2,3.6,0.4,5.5,0.6c0.4,0,0.7,0.1,1.1,0.1 c1,0.1,1.7,0.9,1.6,1.9l0,0.5c0,0.4,0,0.8-0.1,1.2c-0.2,1.9-0.3,3.8-0.5,5.3c-0.1,0.6,0,0.8,0,0.9c0,0,0.2,0.1,0.7,0.1 c2.1,0.3,4.1,0.4,5.8,0.6c0.3,0,1.5,0.1,2.3,1c0.8,1,0.6,2.1,0.6,2.5c-0.2,1.3-0.3,2.6-0.4,4c0,0.6-0.1,1.1-0.2,1.7 c-0.1,0.6,0,0.8,0.1,0.9c0,0,0.3,0.2,0.9,0.2c0.1,0,0.1,0,0.2,0c1.5,0.2,3.2,0.4,4.7,0.5l0.2,0c1.3,0.1,2.4,0.2,3.1,1.2 c0.7,1,0.4,2.2,0.2,3.1c-0.9,4.3-0.2,7.1,2.5,9.3c1.1,0.8,1.4,2.5,1.3,3.5c-0.2,2.8-0.5,5.7-0.8,8.5c-0.2,1.8-0.3,3.6-0.5,5.4 c0,0.5-0.2,1.6-1.1,2.4C193.7,146,193,146.1,192.5,146.1z M137.9,92.8l37.7,45.5c0.3,0.3,0.6,0.7,0.8,1c0.3,0.4,0.7,0.9,1.1,1.3 c0.2,0.3,0.5,0.5,1.3,0.6c3.9,0.3,8.3,0.7,13,1.2c0.1-1.7,0.3-3.3,0.5-5c0.3-2.8,0.5-5.6,0.8-8.5c0-0.1,0-0.2,0-0.3 c-3.6-3.1-4.8-7.2-3.7-12.7l-0.3,0c-1.6-0.2-3.2-0.3-4.9-0.5c-1.5-0.1-2.6-0.6-3.4-1.5c-0.8-0.9-1.1-2.1-0.9-3.6 c0.1-0.5,0.1-1.1,0.1-1.7c0.1-1.2,0.2-2.4,0.3-3.5c-1.7-0.1-3.5-0.3-5.3-0.5c-1.4-0.1-2.5-0.6-3.2-1.4c-0.7-0.9-1-2-0.9-3.5 c0.1-1.5,0.3-3.4,0.4-5.2c-1.6-0.2-3.2-0.3-4.7-0.5c-1.7-0.1-3.1-0.8-4.3-2.2l-8.9-10.7c-0.5-0.6-0.6-1.5-0.1-2.2 c3.8-5.7,5.7-12.6,5.3-19.5c-0.2-3.7-1.1-7.3-2.6-10.7c-0.5-1.2-1.1-2.4-1.8-3.5c-1.1,1.2-2.3,2.4-3.9,3.8 c-0.2,0.2-0.4,0.4-0.6,0.6c-1,0.9-2.2,2-3.7,2.3c-0.3,0.1-0.7,0.1-1,0.1c-0.9,0-1.8-0.4-2.5-1c-0.7-0.7-1.3-1.6-1.8-2.4 c-0.6-1-1.2-1.9-1.9-2.2c-1.1-0.5-2.5-0.2-3.4,0.5c-0.9,0.8-1.4,2.2-1.1,3.3c0.2,0.8,0.9,1.5,1.8,2.3c0.7,0.6,1.4,1.3,2,2.2 c0.6,0.8,0.8,1.8,0.6,2.7c0,0.2-0.1,0.5-0.2,0.9c-0.2,0.5-0.5,1-1,1.4c-3.4,3.2-6.4,5.4-9.5,7c0,0,0,0-0.1,0c0,0,0,0,0,0 c-0.7,0.3-1.4,0.4-2.1,0.2c-0.6-0.2-1.2-0.7-1.5-1.3c-0.5-1.1-1.1-2.1-1.6-3.1c-1-1.8-2.1-3.5-3.3-5.2c-0.4,0.3-0.9,0.8-1.3,1.3 c-1,1.1-2.2,2.4-4.2,2.8c-2.5,0.5-5.1-0.4-6.7-2.3c-1.6-1.9-2-4.7-1.1-7.1c0.3-0.8,0.8-1.5,1.5-2.1c0.7-0.6,1.4-1.1,2-1.5 c0.6-0.4,1.1-0.7,1.5-1.1c-1.5-1.5-3.1-2.9-4.6-4.2c-0.4-0.3-0.8-0.7-1.3-1c0,0,0,0-0.1-0.1l-0.8-0.5c-4,4.6-6.4,10.5-7.3,17.8 c-0.9,7.7,1.3,15.9,5.9,21.7c0.1,0.2,0.3,0.4,0.5,0.6c0.2,0.2,0.4,0.4,0.5,0.6c4.7,5.3,10.8,8.7,17.7,10c4.6,0.8,9.4,0.7,13.9-0.6 c0.8-0.2,1.7,0.2,2.1,0.9C137.8,92.4,137.9,92.6,137.9,92.8z M193.3,128.8C193.3,128.8,193.3,128.8,193.3,128.8 C193.3,128.8,193.3,128.8,193.3,128.8z"></path> </g> </g> </svg> 