<?xml version="1.0" encoding="UTF-8"?> <!-- Generator: Adobe Illustrator 19.0.0, SVG Export Plug-In . SVG Version: 6.00 Build 0) --> <svg xmlns="http://www.w3.org/2000/svg" xmlns:xlink="http://www.w3.org/1999/xlink" version="1.1" id="Laag_1" x="0px" y="0px" viewBox="0 0 218.6 185.3" style="enable-background:new 0 0 218.6 185.3;" xml:space="preserve"> <style type="text/css"> .st0{fill:#FFFFFF;} </style> <g> <path class="st0" d="M4.3,184.6c-1.5-0.4-2.7-1-3.6-1.8C0.2,182.5,0,182,0,181.3c0-0.4,0.1-0.8,0.4-1.2c0.3-0.3,0.6-0.5,0.9-0.5 c0.4,0,0.8,0.1,1.3,0.4c0.9,0.7,1.9,1.1,2.9,1.4c1,0.3,2.1,0.4,3.3,0.4c1.6,0,2.8-0.3,3.6-0.8c0.8-0.5,1.2-1.3,1.2-2.4 c0-0.8-0.4-1.4-1.2-1.9c-0.8-0.4-2.1-0.9-3.9-1.3c-1.9-0.4-3.4-0.9-4.6-1.4c-1.2-0.5-2.1-1.2-2.7-2c-0.6-0.8-0.9-1.9-0.9-3.2 c0-1.3,0.4-2.5,1.1-3.6c0.7-1,1.8-1.9,3.1-2.4c1.3-0.6,2.8-0.9,4.5-0.9c3.1,0,5.5,0.8,7.5,2.4c0.3,0.2,0.5,0.5,0.6,0.7 c0.1,0.2,0.2,0.5,0.2,0.8c0,0.4-0.1,0.8-0.4,1.2c-0.3,0.3-0.6,0.5-0.9,0.5c-0.2,0-0.4,0-0.6-0.1c-0.2-0.1-0.4-0.2-0.7-0.4 c-0.9-0.6-1.7-1.1-2.5-1.4c-0.8-0.3-1.8-0.5-3-0.5c-1.5,0-2.6,0.3-3.4,0.9c-0.8,0.6-1.3,1.4-1.3,2.4c0,0.9,0.4,1.5,1.1,2 c0.7,0.5,2,0.9,3.8,1.3c1.9,0.4,3.4,0.9,4.6,1.4c1.2,0.5,2.1,1.2,2.7,2c0.6,0.8,0.9,1.8,0.9,3c0,1.3-0.4,2.5-1.1,3.5 c-0.7,1-1.8,1.8-3.1,2.4c-1.3,0.6-2.9,0.8-4.6,0.8C7.3,185.3,5.8,185,4.3,184.6z"></path> <path class="st0" d="M23.8,182.9c-1.6-1.6-2.4-3.9-2.4-7v-11.6c0-0.6,0.2-1.1,0.5-1.5c0.4-0.4,0.9-0.6,1.5-0.6 c0.6,0,1.1,0.2,1.5,0.6c0.4,0.4,0.5,0.9,0.5,1.5v11.8c0,1.9,0.5,3.4,1.4,4.4c0.9,1,2.3,1.5,4,1.5c1.7,0,3.1-0.5,4-1.5 c0.9-1,1.4-2.5,1.4-4.4v-11.8c0-0.6,0.2-1.1,0.5-1.5c0.4-0.4,0.9-0.6,1.5-0.6c0.6,0,1.1,0.2,1.5,0.6c0.4,0.4,0.5,0.9,0.5,1.5v11.6 c0,3.1-0.8,5.4-2.4,7c-1.6,1.6-3.9,2.4-7,2.4C27.8,185.3,25.4,184.5,23.8,182.9z"></path> <path class="st0" d="M48,184.6c-1.5-0.4-2.7-1-3.6-1.8c-0.5-0.4-0.7-0.9-0.7-1.5c0-0.4,0.1-0.8,0.4-1.2c0.3-0.3,0.6-0.5,0.9-0.5 c0.4,0,0.8,0.1,1.3,0.4c0.9,0.7,1.9,1.1,2.9,1.4c1,0.3,2.1,0.4,3.3,0.4c1.6,0,2.8-0.3,3.6-0.8c0.8-0.5,1.2-1.3,1.2-2.4 c0-0.8-0.4-1.4-1.2-1.9c-0.8-0.4-2.1-0.9-3.9-1.3c-1.9-0.4-3.4-0.9-4.6-1.4c-1.2-0.5-2.1-1.2-2.7-2c-0.6-0.8-0.9-1.9-0.9-3.2 c0-1.3,0.4-2.5,1.1-3.6c0.7-1,1.8-1.9,3.1-2.4c1.3-0.6,2.8-0.9,4.5-0.9c3.1,0,5.5,0.8,7.5,2.4c0.3,0.2,0.5,0.5,0.6,0.7 c0.1,0.2,0.2,0.5,0.2,0.8c0,0.4-0.1,0.8-0.4,1.2c-0.3,0.3-0.6,0.5-0.9,0.5c-0.2,0-0.4,0-0.6-0.1c-0.2-0.1-0.4-0.2-0.7-0.4 c-0.9-0.6-1.7-1.1-2.5-1.4s-1.8-0.5-3-0.5c-1.5,0-2.6,0.3-3.4,0.9c-0.8,0.6-1.3,1.4-1.3,2.4c0,0.9,0.4,1.5,1.1,2 c0.7,0.5,2,0.9,3.8,1.3c1.9,0.4,3.4,0.9,4.6,1.4c1.2,0.5,2.1,1.2,2.7,2c0.6,0.8,0.9,1.8,0.9,3c0,1.3-0.4,2.5-1.1,3.5 c-0.7,1-1.8,1.8-3.1,2.4c-1.3,0.6-2.9,0.8-4.6,0.8C51,185.3,49.5,185,48,184.6z"></path> <path class="st0" d="M71.8,184.6c-0.4-0.4-0.6-0.9-0.6-1.5v-17.3h-5.8c-1.3,0-1.9-0.6-1.9-1.7c0-1.1,0.6-1.7,1.9-1.7h15.8 c1.3,0,1.9,0.6,1.9,1.7c0,1.1-0.6,1.7-1.9,1.7h-5.8v17.3c0,0.6-0.2,1.1-0.6,1.5c-0.4,0.4-0.9,0.6-1.5,0.6 C72.6,185.1,72.1,184.9,71.8,184.6z"></path> <path class="st0" d="M103.4,183.3c0,0.5-0.2,0.9-0.6,1.2c-0.4,0.3-0.8,0.5-1.4,0.5c-0.3,0-0.7-0.1-1-0.3c-0.3-0.2-0.5-0.5-0.7-0.8 l-1.9-4.3H86.6l-1.9,4.3c-0.2,0.4-0.4,0.7-0.7,0.8c-0.3,0.2-0.6,0.3-1,0.3c-0.5,0-0.9-0.2-1.3-0.5c-0.4-0.3-0.6-0.8-0.6-1.2 c0-0.3,0.1-0.6,0.2-0.8l8.8-19c0.2-0.4,0.5-0.8,0.9-1c0.4-0.2,0.8-0.3,1.3-0.3c0.4,0,0.9,0.1,1.3,0.3c0.4,0.2,0.7,0.5,0.9,1l8.9,19 C103.3,182.8,103.4,183.1,103.4,183.3z M88,176.5h8.4l-4.2-9.5L88,176.5z"></path> <path class="st0" d="M107,184.6c-0.4-0.4-0.6-0.9-0.6-1.5v-18.8c0-0.6,0.2-1.1,0.6-1.5c0.4-0.4,0.9-0.6,1.5-0.6 c0.6,0,1.1,0.2,1.5,0.6c0.4,0.4,0.6,0.9,0.6,1.5v18.8c0,0.6-0.2,1.1-0.6,1.5c-0.4,0.4-0.9,0.6-1.5,0.6 C107.8,185.2,107.3,185,107,184.6z"></path> <path class="st0" d="M134.1,162.8c0.4,0.4,0.5,0.9,0.5,1.5v18.8c0,0.6-0.2,1.1-0.5,1.5c-0.4,0.4-0.8,0.6-1.4,0.6 c-0.7,0-1.2-0.2-1.6-0.7l-11.7-15.2v13.9c0,0.6-0.2,1.1-0.5,1.5c-0.3,0.4-0.8,0.6-1.4,0.6c-0.6,0-1.1-0.2-1.4-0.6 c-0.3-0.4-0.5-0.9-0.5-1.5v-18.8c0-0.6,0.2-1.1,0.5-1.5c0.4-0.4,0.8-0.6,1.4-0.6c0.7,0,1.2,0.2,1.5,0.7l11.6,15.1v-13.8 c0-0.6,0.2-1.1,0.5-1.5c0.4-0.4,0.8-0.6,1.4-0.6C133.3,162.3,133.7,162.4,134.1,162.8z"></path> <path class="st0" d="M160,183.3c0,0.5-0.2,0.9-0.6,1.2c-0.4,0.3-0.8,0.5-1.4,0.5c-0.3,0-0.7-0.1-1-0.3c-0.3-0.2-0.5-0.5-0.7-0.8 l-1.9-4.3h-11.3l-1.9,4.3c-0.2,0.4-0.4,0.7-0.7,0.8c-0.3,0.2-0.6,0.3-1,0.3c-0.5,0-0.9-0.2-1.3-0.5c-0.4-0.3-0.6-0.8-0.6-1.2 c0-0.3,0.1-0.6,0.2-0.8l8.8-19c0.2-0.4,0.5-0.8,0.9-1c0.4-0.2,0.8-0.3,1.3-0.3c0.4,0,0.9,0.1,1.3,0.3c0.4,0.2,0.7,0.5,0.9,1l8.9,19 C160,182.8,160,183.1,160,183.3z M144.7,176.5h8.4l-4.2-9.5L144.7,176.5z"></path> <path class="st0" d="M180,175.3c0.7,1,1.1,2.1,1.1,3.5c0,1.9-0.7,3.4-2.1,4.5c-1.4,1.1-3.3,1.6-5.7,1.6h-8.3 c-0.6,0-1.1-0.2-1.5-0.5c-0.4-0.3-0.5-0.8-0.5-1.4v-18.7c0-0.6,0.2-1.1,0.5-1.4c0.4-0.3,0.8-0.5,1.5-0.5h7.9c2.3,0,4.2,0.5,5.5,1.6 c1.3,1,2,2.5,2,4.3c0,1.2-0.3,2.2-0.9,3.1c-0.6,0.9-1.5,1.5-2.6,1.9C178.3,173.7,179.3,174.3,180,175.3z M167.1,171.9h5.2 c2.8,0,4.3-1.1,4.3-3.2c0-1.1-0.4-1.9-1.1-2.4s-1.8-0.8-3.2-0.8h-5.2V171.9z M176.2,181c0.7-0.5,1-1.4,1-2.5c0-1.1-0.3-2-1-2.5 c-0.7-0.6-1.8-0.8-3.2-0.8h-5.8v6.7h5.8C174.4,181.8,175.5,181.5,176.2,181z"></path> <path class="st0" d="M185.7,184.5c-0.3-0.3-0.5-0.8-0.5-1.4v-18.8c0-0.6,0.2-1.1,0.6-1.5c0.4-0.4,0.9-0.6,1.5-0.6 c0.6,0,1.1,0.2,1.5,0.6c0.4,0.4,0.6,0.9,0.6,1.5v17.3h9c1.3,0,1.9,0.6,1.9,1.7c0,1.1-0.6,1.7-1.9,1.7h-11.2 C186.5,185,186,184.8,185.7,184.5z"></path> <path class="st0" d="M203.6,184.5c-0.4-0.3-0.5-0.8-0.5-1.4v-18.7c0-0.6,0.2-1.1,0.5-1.4c0.4-0.3,0.8-0.5,1.5-0.5h11.6 c0.6,0,1.1,0.1,1.4,0.4c0.3,0.3,0.5,0.7,0.5,1.2c0,0.5-0.2,0.9-0.5,1.2c-0.3,0.3-0.8,0.4-1.4,0.4h-9.5v6.2h8.9 c0.6,0,1.1,0.1,1.4,0.4c0.3,0.3,0.5,0.7,0.5,1.2c0,0.5-0.2,0.9-0.5,1.2c-0.3,0.3-0.8,0.4-1.4,0.4h-8.9v6.6h9.5 c0.6,0,1.1,0.1,1.4,0.4c0.3,0.3,0.5,0.7,0.5,1.2c0,0.5-0.2,0.9-0.5,1.2c-0.3,0.3-0.8,0.4-1.4,0.4h-11.6 C204.4,185,203.9,184.8,203.6,184.5z"></path> </g> <g> <path class="st0" d="M135.7,58h-6c-0.2,0-0.3,0-0.4-0.1l-4.1-1.4c-2.8-0.9-5.9,0.4-7.2,3l-3,5.9c-0.8,1.6-0.8,3.4-0.1,5l6.1,14.2 c0.9,2.2,3.1,3.6,5.5,3.6h1.1c0.6,0,1.1,0.4,1.3,0.9l7.9,21.7c0.7,1.8,2.1,3.2,3.9,3.7c0.6,0.2,1.1,0.2,1.7,0.2 c1.3,0,2.6-0.4,3.6-1.3l4.1-3.2c1.5-1.1,2.3-2.9,2.3-4.7v-5.4c0-0.3,0.1-0.6,0.2-0.8l9-13.5c0.9-1.4,1.2-3.1,0.8-4.8l-2.1-8.5 c-0.1-0.4-0.3-0.8-0.5-1.2l-2.4-4.8c-0.3-0.6-0.1-1.2,0.1-1.4c0.1-0.2,0.5-0.7,1.2-0.7c1.3,0,2.3-1,2.3-2.3c0-1.3-1-2.3-2.3-2.3 c-2.1,0-4,1.1-5.1,2.8c-1.1,1.8-1.2,3.9-0.3,5.8l2.4,4.8c0,0.1,0.1,0.2,0.1,0.3l2.1,8.5c0.1,0.4,0,0.8-0.2,1.1l-9,13.5 c-0.7,1-1,2.1-1,3.3v5.4c0,0.4-0.2,0.9-0.6,1.1l-4.1,3.2c-0.5,0.4-1.1,0.3-1.3,0.2c-0.2-0.1-0.7-0.3-0.9-0.9l-7.9-21.7 c-0.9-2.3-3.1-3.9-5.6-3.9h-1.1c-0.6,0-1.1-0.3-1.3-0.9l-6.1-14.2c-0.2-0.4-0.2-0.8,0-1.2l3-5.9c0.3-0.6,1.1-0.9,1.7-0.7l4.1,1.4 c0.6,0.2,1.2,0.3,1.9,0.3h6c3.3,0,6-2.7,6-6v-0.7c0-1.7-0.7-3.3-1.9-4.4l-2.1-1.9c-0.8-0.7-1.7-1.2-2.8-1.4l-8.9-2 c-0.6-0.1-0.8-0.5-1-0.7c-0.1-0.2-0.3-0.7-0.1-1.2l2.6-6.6c0.2-0.5,0.7-0.9,1.3-0.9h4c1.3,0,2.3-1,2.3-2.3c0-1.3-1-2.3-2.3-2.3h-4 c-2.5,0-4.6,1.5-5.5,3.7l-2.6,6.6c-0.7,1.6-0.6,3.5,0.3,5c0.8,1.6,2.3,2.7,4,3l8.9,2c0.2,0.1,0.5,0.2,0.7,0.3l2.1,1.9 c0.3,0.3,0.5,0.6,0.5,1v0.7C137.1,57.4,136.5,58,135.7,58z"></path> <path class="st0" d="M124.6,13.5c-1.2-0.2-2.4,0.7-2.6,1.9c-0.2,1.2,0.7,2.4,1.9,2.6c28.3,4,49.6,28.7,49.6,57.3 c0,31.9-26,57.9-57.9,57.9c-15.9,0-31-6.5-41.9-18c1.8-8.7,0.5-15.9-4-21.3c-8.8-10.5-26.4-10.1-27.2-10c-0.6,0-1.2,0.3-1.6,0.7 c-0.4,0.4-0.6,1-0.6,1.6c0,0.8,0.9,19,12.1,27.5c3.7,2.8,8,4.3,13,4.3c1.4,0,2.9-0.1,4.4-0.4c11.8,12.8,28.4,20.1,45.8,20.1 c34.4,0,62.4-28,62.4-62.4C178.2,44.5,155.2,17.9,124.6,13.5z M55.2,110.2c-7.3-5.6-9.4-16.8-10.1-21.7c4.8,0.3,15.4,1.6,21.1,8.4 c3.4,4,4.5,9.5,3.3,16.2c0,0-0.1,0-0.1,0C63.8,114.1,59,113.1,55.2,110.2z"></path> <path class="st0" d="M53.8,67.5c-0.4,2.9-0.5,4.9-0.5,7.9c0,1.3,1,2.3,2.3,2.3c1.3,0,2.3-1,2.3-2.3c0-18.2,8.3-35,22.7-46 c1-0.8,1.2-2.2,0.4-3.2c-0.8-1-2.2-1.2-3.2-0.4c-11.6,8.9-19.5,21.2-22.8,35c-6.3-13.5-3.6-27.8,7.1-37.2 C75.8,11.5,94,7.2,109.7,5.2c-3.8,6.1-5.8,13.8-6.2,23.5c-0.1,2-0.1,4-0.1,5.9c0,5.9,0,11.5-2.3,16.7c-4.3,9.6-18.8,17.8-32.8,14.2 c-1.2-0.3-2.4,0.4-2.8,1.6c-0.3,1.2,0.4,2.5,1.6,2.8c2.4,0.6,4.9,0.9,7.6,0.9c11.9,0,25.5-6.2,30.6-17.7c2.7-6.1,2.7-12.4,2.7-18.6 c0-1.9,0-3.8,0.1-5.7c0.4-9,2.3-16,5.7-21.4c0.6-1,1.7-2.4,3.2-3.2c1-0.5,1.4-1.6,1.1-2.7c-0.3-1-1.3-1.7-2.4-1.6 C98,1.7,75.7,5.5,59.1,20.1C46,31.6,43.4,49.4,52.3,65.5C52.7,66.1,53.2,66.9,53.8,67.5z"></path> <path class="st0" d="M85,109.8c-1.1,0.6-1.6,1.9-1,3c0.4,0.8,1.2,1.2,2,1.2c0.3,0,0.7-0.1,1-0.2c7.7-3.9,12.8-11.9,15-23 c1.6-8.2,0.9-15.3,0.9-15.6c-0.1-0.6-0.3-1.2-0.8-1.5c-0.5-0.4-1.1-0.6-1.7-0.5c-0.6,0.1-15,1.6-24.9,10c-1,0.8-1.1,2.2-0.3,3.2 c0.8,1,2.2,1.1,3.2,0.3c6.6-5.5,15.7-7.8,20-8.5C98.7,84.8,97.8,103.4,85,109.8z"></path> </g> </svg> 